<svg width="40" height="60" viewBox="0 0 40 60" fill="none" xmlns="http://www.w3.org/2000/svg">
<path d="M23.3998 4.32642H16.6004C15.9622 4.32642 15.374 3.981 15.0632 3.42366C14.4087 2.25035 15.2569 0.805908 16.6004 0.805908H23.3998C24.7433 0.805908 25.5915 2.25025 24.9371 3.42355C24.6263 3.98095 24.038 4.32642 23.3998 4.32642Z" fill="#321738" stroke="#321738" stroke-width="1.61193"/>
<path d="M11.0146 14.7404L12.6073 13.5224C13.0857 13.1566 13.3574 12.5818 13.3364 11.98L13.2959 10.8162C13.2836 10.4639 12.9944 10.1846 12.6419 10.1846C12.2804 10.1846 11.9875 9.89163 11.9875 9.53021V8.07634C11.9875 7.7211 12.2754 7.43313 12.6307 7.43313C12.9859 7.43313 13.2739 7.14516 13.2739 6.78993V6.61126C13.2739 6.23629 13.5778 5.93232 13.9528 5.93232H14.1136C14.3998 5.93232 14.6317 5.70034 14.6317 5.41418C14.6317 5.12802 14.8637 4.89604 15.1499 4.89604H24.8337C25.1198 4.89604 25.3518 5.12802 25.3518 5.41418C25.3518 5.70034 25.5838 5.93232 25.8699 5.93232H25.8944C26.1941 5.93232 26.4371 6.17527 26.4371 6.47495V6.72508C26.4371 7.11613 26.7541 7.43313 27.1451 7.43313C27.5361 7.43313 27.8531 7.75014 27.8531 8.14118V9.46493C27.8531 9.8624 27.5309 10.1846 27.1335 10.1846C26.7452 10.1846 26.4269 10.4926 26.4142 10.8807L26.3782 11.975C26.3583 12.5793 26.6348 13.1552 27.1188 13.5176L28.5676 14.6025C35.4068 19.7238 38.2373 28.6242 35.6127 36.7552L29.7059 55.0548C29.0268 57.1586 27.2665 58.733 25.1003 59.174C24.6982 59.2559 24.2889 59.2971 23.8786 59.2971H16.3002C15.9015 59.2971 15.5035 59.264 15.1103 59.1981C12.4121 58.7461 10.2032 56.8041 9.40915 54.1861L4.02448 36.4324C1.60392 28.4516 4.38973 19.8064 11.0146 14.7404Z" fill="#ABC52D" stroke="#ABC52D"/>
<path d="M12.2 52.0893L7.45292 34.3018C7.27054 33.6184 7.25662 32.8919 7.5575 32.2518C8.36416 30.5357 10.322 27.9475 13.8986 28.7363C14.9759 28.9739 16.1124 29.0446 17.1504 28.6708C22.4871 26.7488 25.3999 27.2057 30.0046 28.6053C32.0058 29.2136 33.1788 31.2912 32.706 33.3286L28.3816 51.9621C27.9609 53.7747 26.3459 55.0579 24.4851 55.0579H16.0647C14.2528 55.0579 12.6672 53.8399 12.2 52.0893Z" fill="url(#paint0_linear_112_65)"/>
<defs>
<linearGradient id="paint0_linear_112_65" x1="20.3077" y1="22.9302" x2="20.3077" y2="55.0577" gradientUnits="userSpaceOnUse">
<stop stop-color="#8C429E"/>
<stop offset="0.610577" stop-color="#321738"/>
</linearGradient>
</defs>
</svg>
