<svg width="231" height="278" viewBox="0 0 231 278" fill="none" xmlns="http://www.w3.org/2000/svg">
<path d="M37 191C37 163.386 59.3858 141 87 141H145C172.614 141 195 163.386 195 191V193C195 215.091 177.091 233 155 233H77C54.9086 233 37 215.091 37 193V191Z" fill="#C55A17"/>
<path d="M0 232C0 206.595 20.5949 186 46 186C71.4051 186 92 206.595 92 232C92 257.405 71.4051 278 46 278C20.5949 278 0 257.405 0 232Z" fill="url(#paint0_linear_73_259)"/>
<path d="M138 232C138 206.595 158.595 186 184 186C209.405 186 230 206.595 230 232C230 257.405 209.405 278 184 278C158.595 278 138 257.405 138 232Z" fill="#C55A17"/>
<path d="M138 232C138 206.595 158.595 186 184 186C209.405 186 230 206.595 230 232C230 257.405 209.405 278 184 278C158.595 278 138 257.405 138 232Z" fill="url(#paint1_linear_73_259)"/>
<ellipse cx="40" cy="16.5" rx="40" ry="16.5" transform="matrix(-0.820163 0.57213 0.57213 0.820163 211.613 160)" fill="#8BA21B"/>
<ellipse cx="40" cy="16.5" rx="40" ry="16.5" transform="matrix(-0.820163 0.57213 0.57213 0.820163 211.613 160)" fill="url(#paint2_linear_73_259)"/>
<ellipse cx="44.2467" cy="196.418" rx="40" ry="16.5" transform="rotate(34.8989 44.2467 196.418)" fill="url(#paint3_linear_73_259)"/>
<path d="M116 131C151.991 131 181.167 159.878 181.167 195.5C181.167 202.985 183.078 210.45 184.5 217.798C184.83 219.503 185 221.239 185 223C185 246.748 154.108 266 116 266C77.8924 266 47 246.748 47 223C47 221.239 47.1698 219.504 47.4998 217.798C48.9217 210.45 50.833 202.984 50.833 195.5C50.833 159.878 80.0094 131 116 131Z" fill="url(#paint4_radial_73_259)"/>
<ellipse cx="114.942" cy="221.075" rx="11.3519" ry="6.4232" fill="#7B98BA"/>
<ellipse cx="89" cy="203" rx="17" ry="20" fill="white"/>
<ellipse cx="89" cy="202.5" rx="13" ry="16.5" fill="#2E2E2E"/>
<ellipse cx="97" cy="196" rx="5" ry="7" fill="white"/>
<ellipse cx="69" cy="221.5" rx="16" ry="12.5" fill="#50639E"/>
<ellipse cx="90" cy="188.5" rx="16" ry="12.5" fill="url(#paint5_linear_73_259)"/>
<ellipse cx="140" cy="203" rx="17" ry="20" fill="white"/>
<ellipse cx="140" cy="202.5" rx="13" ry="16.5" fill="#2E2E2E"/>
<ellipse cx="148" cy="196" rx="5" ry="7" fill="white"/>
<ellipse cx="160" cy="221.5" rx="16" ry="12.5" fill="#50639E"/>
<ellipse cx="140" cy="188.5" rx="16" ry="12.5" fill="#ABC52D"/>
<ellipse cx="140" cy="188.5" rx="16" ry="12.5" fill="url(#paint6_linear_73_259)"/>
<rect x="43" y="135" width="68.3806" height="68.3806" rx="34.1903" transform="rotate(-25.6776 43 135)" fill="#EA8215"/>
<rect x="98" y="135" width="68.3806" height="68.3806" rx="34.1903" transform="rotate(-25.6776 98 135)" fill="#EA8215"/>
<path d="M220.28 136.839C221.422 136.756 222.567 137.148 223.304 138.024C226.645 141.987 226.887 146.097 223.994 150.096C220.779 154.538 213.779 158.724 203.535 162.329C193.291 165.934 180.078 168.862 164.919 170.885C149.759 172.909 133.058 173.975 116.109 174C99.1603 174.025 82.4169 173.008 67.1744 171.029C51.9319 169.05 38.5989 166.162 28.2068 162.587C17.8147 159.013 10.6421 154.848 7.24377 150.415C4.20149 146.446 4.25718 142.358 7.38492 138.404C8.11146 137.486 9.28191 137.069 10.4501 137.151L115.215 144.48C115.405 144.493 115.595 144.493 115.785 144.479L220.28 136.839Z" fill="#2E2E2E"/>
<path d="M111.932 7.0366C113.414 4.11506 117.586 4.11505 119.068 7.03659L187.466 141.941C188.815 144.602 186.882 147.75 183.898 147.75H47.1016C44.1183 147.75 42.1849 144.602 43.534 141.941L111.932 7.0366Z" fill="#2E2E2E"/>
<path d="M140 242C120.865 233.848 110.135 234.154 91 242" stroke="#2E2E2E" stroke-width="5" stroke-linecap="round"/>
<path d="M44.5 140C99.1365 155.454 130.612 155.655 186.5 139.598L168 103C126.101 114.935 102.393 114.371 63 103L44.5 140Z" fill="url(#paint7_linear_73_259)"/>
<path d="M51.1958 110.708C52.3932 107.023 57.6068 107.023 58.8042 110.708L62.409 121.802C62.9445 123.451 64.4803 124.566 66.2132 124.566H77.8784C81.7533 124.566 83.3643 129.525 80.2295 131.802L70.7922 138.659C69.3902 139.678 68.8036 141.483 69.3391 143.131L72.9438 154.225C74.1412 157.911 69.9233 160.975 66.7885 158.698L57.3511 151.841C55.9492 150.822 54.0508 150.822 52.6489 151.841L43.2115 158.698C40.0767 160.975 35.8588 157.911 37.0562 154.225L40.6609 143.131C41.1964 141.483 40.6098 139.678 39.2078 138.659L29.7705 131.802C26.6356 129.525 28.2467 124.566 32.1216 124.566H43.7868C45.5197 124.566 47.0555 123.451 47.591 121.802L51.1958 110.708Z" fill="url(#paint8_linear_73_259)"/>
<defs>
<linearGradient id="paint0_linear_73_259" x1="46" y1="186" x2="46" y2="278" gradientUnits="userSpaceOnUse">
<stop offset="0.398547" stop-color="#C55A17"/>
<stop offset="1" stop-color="#50639E"/>
</linearGradient>
<linearGradient id="paint1_linear_73_259" x1="184" y1="186" x2="184" y2="278" gradientUnits="userSpaceOnUse">
<stop offset="0.398547" stop-color="#C55A17"/>
<stop offset="1" stop-color="#50639E"/>
</linearGradient>
<linearGradient id="paint2_linear_73_259" x1="40" y1="0" x2="40" y2="33" gradientUnits="userSpaceOnUse">
<stop stop-color="#50639E"/>
<stop offset="0.605769" stop-color="#8BA21B"/>
</linearGradient>
<linearGradient id="paint3_linear_73_259" x1="44.2467" y1="179.918" x2="44.2467" y2="212.918" gradientUnits="userSpaceOnUse">
<stop stop-color="#50639E"/>
<stop offset="0.605769" stop-color="#8BA21B"/>
</linearGradient>
<radialGradient id="paint4_radial_73_259" cx="0" cy="0" r="1" gradientUnits="userSpaceOnUse" gradientTransform="translate(116 198.5) rotate(90) scale(67.5 69)">
<stop offset="0.365385" stop-color="#50639E"/>
<stop offset="1" stop-color="#ABC52D"/>
</radialGradient>
<linearGradient id="paint5_linear_73_259" x1="90" y1="176" x2="90" y2="201" gradientUnits="userSpaceOnUse">
<stop stop-color="#849B5E"/>
<stop offset="1" stop-color="#50639E"/>
</linearGradient>
<linearGradient id="paint6_linear_73_259" x1="140" y1="176" x2="140" y2="201" gradientUnits="userSpaceOnUse">
<stop stop-color="#849B5E"/>
<stop offset="1" stop-color="#50639E"/>
</linearGradient>
<linearGradient id="paint7_linear_73_259" x1="115.5" y1="103" x2="115.5" y2="151.616" gradientUnits="userSpaceOnUse">
<stop stop-color="#8C429E"/>
<stop offset="0.9999" stop-color="#50639E"/>
<stop offset="1" stop-color="#321738"/>
</linearGradient>
<linearGradient id="paint8_linear_73_259" x1="55" y1="99" x2="55" y2="173" gradientUnits="userSpaceOnUse">
<stop stop-color="#FFD500"/>
<stop offset="1" stop-color="#50639E"/>
</linearGradient>
</defs>
</svg>
